<mxfile host="65bd71144e">
    <diagram id="C5RBs43oDa-KdzZeNtuy" name="Page-1">
        <mxGraphModel dx="776" dy="471" grid="0" gridSize="10" guides="1" tooltips="1" connect="1" arrows="1" fold="1" page="1" pageScale="1" pageWidth="827" pageHeight="1169" math="0" shadow="0">
            <root>
                <mxCell id="WIyWlLk6GJQsqaUBKTNV-0"/>
                <mxCell id="WIyWlLk6GJQsqaUBKTNV-1" parent="WIyWlLk6GJQsqaUBKTNV-0"/>
                <mxCell id="9OZRC_NavAZGSDA5mFGG-38" value="&lt;font data-font-src=&quot;@font-face {     font-family: 'Pretendard-Regular';     src: url('https://cdn.jsdelivr.net/gh/Project-Noonnu/noonfonts_2107@1.1/Pretendard-Regular.woff') format('woff');     font-weight: 400;     font-style: normal; }&quot;&gt;인도(side_walk) 동적 객체 탐지 알고리즘&lt;/font&gt;" style="swimlane;strokeWidth=1;fontSize=12;startSize=23;fontFamily=프리텐다드;html=1;fontSource=https%3A%2F%2Fcdn.jsdelivr.net%2Fgh%2FProject-Noonnu%2Fnoonfonts_2107%401.1%2FPretendard-Regular.woff;" parent="WIyWlLk6GJQsqaUBKTNV-1" vertex="1">
                    <mxGeometry x="110" y="39" width="608" height="959" as="geometry"/>
                </mxCell>
            </root>
        </mxGraphModel>
    </diagram>
</mxfile>